<svg width="60" height="60" viewBox="0 0 60 60" fill="none" xmlns="http://www.w3.org/2000/svg">
<path d="M30.1524 43.4218C29.9227 43.4565 29.9481 43.7169 29.6856 43.6821C29.4559 43.6127 29.3713 43.6996 29.1089 43.4218C28.8464 43.1439 28.5775 42.6207 28.5775 41.9433C28.4791 41.7697 28.4463 41.5091 28.4791 41.1618C28.5447 40.8144 28.6596 40.276 28.8236 39.5466C28.9877 38.9908 29.1845 38.2267 29.4142 37.2541C29.6438 36.2467 29.7543 35.853 30.0168 34.8804C30.1152 34.3246 30.2372 33.7284 30.4013 33.1379C30.5981 32.5474 30.9398 31.4359 31.1367 30.9496C31.3335 30.4286 31.4812 30.0291 31.5796 29.7512C31.8421 28.7786 32.285 27.6722 32.5147 26.9428C32.7772 26.2134 32.892 25.6351 33.2529 24.6972C33.6138 23.7246 34.0567 22.4394 34.5817 20.8416C35.3035 18.7575 35.8449 17.177 36.2058 16.1002C36.5995 14.9887 36.8784 14.1898 37.0424 13.7035C37.2393 13.1825 37.3705 12.783 37.4361 12.5051C37.4361 12.2272 39.4211 8.1537 39.5524 8.01476C40.9146 5.16538 41.3097 6.59005 41.5394 6.59005C41.9987 6.59005 41.7327 7.73199 41.9952 8.21828C42.2905 8.66984 40.3748 13.3067 40.1772 13.917C39.8476 14.9349 39.8148 15.284 39.5524 15.8397C39.0274 17.0902 38.4696 18.5838 37.8791 20.3206C37.2885 22.0226 36.7143 23.7073 36.1566 25.3746C35.5988 27.0071 35.7136 26.6106 35.2215 27.7569C35.2215 27.8958 34.5325 29.9249 34.4341 30.2723C34.3356 30.6196 34.2208 30.9322 34.0895 31.2101C33.9583 31.488 33.8271 31.7485 33.6958 31.9917C33.5974 32.2348 33.5482 32.3564 33.5482 32.3564C33.5482 32.4953 33.499 32.7558 33.4005 33.1379C33.3021 33.52 33.1709 33.9889 33.0068 34.5447C32.8756 34.9615 32.7115 35.4999 32.5147 36.1599C32.3506 36.8199 32.2358 37.3756 32.1702 37.8272C32.3342 37.5146 31.7439 37.8793 32.2689 37.2541C32.7938 36.6288 33.9747 35.9994 34.4341 35.5478C34.959 35.0615 35.5496 34.7136 36.2058 34.1231C36.862 33.5326 37.8895 32.6343 38.2833 32.3564C38.677 32.0785 38.9164 31.8671 39.2445 31.6239C39.5726 31.3808 40.3048 30.9496 40.3048 30.9496C40.8441 30.6602 40.7831 30.6631 40.8816 30.6631C40.7503 30.6631 41.0128 30.6284 40.8816 30.6631C41.0128 30.6631 42.2273 29.786 42.2273 29.7512C42.2601 29.7165 43.3455 29.0251 43.1487 29.2317C43.7254 28.9781 43.7848 28.9713 44.1099 28.9713C44.435 28.9713 44.9375 28.7813 45.2634 28.9781C45.5893 29.1748 45.3151 28.9781 45.5885 29.1816C45.7808 29.7512 45.3104 29.0062 45.973 29.7512C46.2246 30.6631 46.1262 30.4112 46.2246 31.2101C46.1653 32.031 45.7698 34.0467 45.5073 34.8804C45.5073 35.1582 45.111 36.733 45.0125 37.2541C44.9469 37.7404 44.8789 38.4452 44.8789 39.001L45.0125 40.0186L45.5885 40.4257C45.851 40.4257 46.5743 40.1228 46.9936 39.8071C47.4128 39.4914 53.5299 34.7269 53.5299 34.7269C53.6611 34.8659 53.7221 34.5447 54.6833 33.9128C55.6445 33.2809 56.2213 32.8952 56.4135 33.3022C56.6058 33.7093 56.4135 34.3199 56.029 34.7269C55.6445 35.134 48.0665 41.5092 47.6727 41.787C46.8853 42.3428 46.1635 42.6207 45.5073 42.6207C44.8839 42.6207 44.3098 42.3428 43.7848 41.787C43.2598 41.1965 42.9317 40.5366 42.8005 39.8071C42.6693 39.0777 42.538 38.6378 42.8005 37.5262C42.9317 35.9979 43.1885 35.5751 43.1885 34.8804C43.2213 34.1509 43.7848 33.1303 43.4895 32.6416C43.1942 32.1529 42.8005 32.3564 41.9359 33.1379C41.1156 33.5895 40.2616 34.4231 39.2445 35.222C38.2274 36.021 37.1901 36.8546 36.2058 37.8272C35.2215 38.7998 33.417 39.8592 32.7608 40.9013C32.367 41.4223 31.9897 41.8912 31.6288 42.3081C31.2679 42.6902 30.5133 43.387 30.1524 43.4218Z" fill="white"/>
<path d="M17.8997 57.2687C15.9945 59.711 13.6876 64.3922 15.9945 50.1452C16.3241 48.11 17.2902 43.8457 17.323 43.4288C17.3558 42.8731 18.2415 39.6871 18.504 38.645C18.7665 37.603 19.0618 36.5435 19.3899 35.4668C19.718 34.39 20.0133 33.5389 20.2757 32.9137C20.407 32.358 20.4927 32.4481 20.5911 32.0313C20.7224 31.5797 21.0304 30.7455 21.0632 30.6066C21.1616 30.4677 21.1124 30.0654 21.3092 29.4749C21.5389 28.8844 21.7194 28.3113 21.8506 27.7555C21.9162 27.4776 22.0475 26.9566 22.2443 26.1924C22.474 25.3935 22.7365 24.473 23.0317 23.4309C23.3598 22.3889 23.6715 21.3642 23.9668 20.3569C24.2949 19.3495 24.5738 18.4638 24.8035 17.6996C25.0331 16.9354 25.1808 16.4318 25.2464 16.1886C25.5089 15.7718 25.7057 15.3723 25.837 14.9903C25.6893 14.7318 26.0502 14.3477 26.083 14.2087C26.083 14.2087 26.2897 13.4138 26.5358 12.8407C26.5686 12.5975 25.837 14.8164 25.837 14.6775C25.837 14.5038 26.7228 12.3343 26.8213 12.2301C26.9525 12.1259 27.779 10.6483 27.779 10.5094C27.9102 10.4052 26.5592 13.3288 27.2863 11.5493C27.3191 11.3061 27.6149 10.6831 27.779 10.5094H29.819L30.3957 10.6657C30.2645 11.2562 29.1836 13.6702 28.6914 14.6775C28.5274 15.3722 26.9268 19.4126 26.9268 19.4126C26.9268 20.1869 27.7462 16.9171 27.779 17.0908C26.2728 21.6514 27.5159 17.5662 27.2863 18.1914C27.0894 18.8167 26.3783 21.3589 26.083 22.262C25.8206 23.1651 25.9846 22.9871 25.6893 23.8902C25.4268 24.7933 25.0331 26.2272 24.8035 26.9219C24.6066 27.5818 24.2896 28.3678 23.4748 30.6066C22.8082 32.4384 24.436 28.4786 23.4748 30.6066C22.7058 34.0666 22.2788 34.6105 21.8506 35.8983C21.3092 37.5265 21.703 36.415 21.3092 37.5265C20.9483 38.6381 20.5911 39.5472 20.5911 40.1724C20.2302 41.5271 19.5539 44.9431 19.3899 45.4641C19.2586 46.0199 19.3899 44.4465 19.9312 42.9696C18.504 49.3311 18.504 56.2511 17.8997 57.2687ZM20.6202 11.2388C19.7016 11.2736 12.4649 12.333 11.5684 13.1145C9.8343 13.3068 -0.715448 18.1849 0.0384971 14.2608C-0.53798 14.2608 13.3031 10.5094 13.3031 10.5094C6.95905 12.0631 16.7635 9.64327 19.3407 9.36313C21.9179 9.08299 27.7021 8.52949 28.2599 8.42528C28.8504 8.32108 22.4084 9.08889 22.9333 8.98468C25.6839 8.77937 28.2599 8.42528 28.2599 8.42528C28.9981 8.42528 31.1663 2.11321 32.9239 0.48457C34.6814 -1.14393 36.7042 1.70507 35.2862 3.53736C33.3637 3.94435 32.7198 5.77625 32.7198 5.77625C33.5009 4.555 30.7664 8.35581 31.3569 8.42528C31.9475 8.49475 36.5165 8.79 36.5165 8.79C37.2055 8.8942 38.5264 8.65106 38.8545 8.79C39.6091 8.96367 58.7381 8.46892 59.8091 8.01539C60.7703 7.60834 57.8866 10.6657 55.9642 10.9262C55.003 10.6657 47.4116 11.1346 47.3132 11.2388C47.2148 11.3083 49.5727 11.1346 45.3908 11.2388C48.4667 11.4994 41.3301 11.2388 40.9691 11.2388C43.2761 11.1177 38.5015 11.0999 38.0422 10.9262C37.8781 10.7525 36.7462 11.0652 36.5165 10.9262C36.3197 10.7873 35.8111 10.9957 35.2862 10.9262C34.794 10.822 34.0066 10.7352 32.9239 10.6657C32.0052 10.7699 32.0459 10.6657 31.3569 10.6657C30.6679 10.6657 30.3957 10.492 30.3957 10.6657H26.8213L24.8035 10.6657C24.4754 10.7004 24.5574 10.5962 23.9668 10.6657C23.3762 10.7004 23.9668 10.6433 22.2443 10.9262C21.6865 10.961 20.6202 11.2388 20.6202 11.2388Z" fill="white"/>
</svg>
