<svg width="40" height="40" viewBox="0 0 40 40" fill="none" xmlns="http://www.w3.org/2000/svg">
<path d="M20.1022 28.9477C19.9491 28.9708 19.966 29.1444 19.791 29.1213C19.6379 29.0749 19.5815 29.1329 19.4066 28.9477C19.2316 28.7624 19.0523 28.4136 19.0523 27.9621C18.9867 27.8463 18.9648 27.6726 18.9867 27.441C19.0305 27.2095 19.107 26.8505 19.2164 26.3642C19.3258 25.9937 19.457 25.4843 19.6101 24.8359C19.7632 24.1643 19.8368 23.9018 20.0118 23.2534C20.0774 22.8829 20.1588 22.4855 20.2682 22.0918C20.3994 21.6981 20.6272 20.9571 20.7584 20.6329C20.8897 20.2855 20.9881 20.0192 21.0537 19.834C21.2287 19.1856 21.524 18.448 21.6771 17.9617C21.8521 17.4754 21.9286 17.0899 22.1693 16.4647C22.4099 15.8163 22.7051 14.9595 23.0551 13.8942C23.5363 12.5048 23.8972 11.4512 24.1378 10.7333C24.4003 9.99231 24.5862 9.4597 24.6956 9.1355C24.8268 8.78815 24.9143 8.52184 24.9581 8.33659C24.9581 8.15133 26.2814 5.43564 26.3689 5.34301C27.277 3.44343 27.5405 4.3932 27.6936 4.3932C27.9998 4.3932 27.8225 5.15449 27.9975 5.47869C28.1943 5.77973 26.9172 8.87094 26.7854 9.27786C26.5657 9.95642 26.5439 10.1891 26.3689 10.5597C26.0189 11.3933 25.6471 12.389 25.2534 13.5469C24.8596 14.6816 24.4769 15.8047 24.105 16.9162C23.7332 18.0046 23.8097 17.7403 23.4816 18.5044C23.4816 18.5971 23.0223 19.9498 22.9567 20.1813C22.8911 20.4129 22.8145 20.6213 22.727 20.8066C22.6395 20.9918 22.552 21.1655 22.4645 21.3276C22.3989 21.4897 22.3661 21.5708 22.3661 21.5708C22.3661 21.6634 22.3333 21.8371 22.2677 22.0918C22.2021 22.3465 22.1146 22.6591 22.0052 23.0296C21.9177 23.3075 21.8083 23.6665 21.6771 24.1064C21.5677 24.5464 21.4912 24.9169 21.4474 25.218C21.5568 25.0096 21.1633 25.2527 21.5132 24.8359C21.8632 24.4191 22.6505 23.9994 22.9567 23.6984C23.3067 23.3742 23.7004 23.1422 24.1378 22.7486C24.5753 22.3549 25.2603 21.756 25.5228 21.5708C25.7853 21.3855 25.9449 21.2445 26.1636 21.0825C26.3824 20.9204 26.8705 20.6329 26.8705 20.6329C27.23 20.4399 27.1894 20.4419 27.255 20.4419C27.1675 20.4419 27.3425 20.4188 27.255 20.4419C27.3425 20.4419 28.1522 19.8571 28.1522 19.834C28.174 19.8108 28.8977 19.3499 28.7664 19.4876C29.1509 19.3185 29.1905 19.314 29.4073 19.314C29.624 19.314 29.959 19.1874 30.1762 19.3185C30.3935 19.4497 30.2107 19.3185 30.393 19.4542C30.5212 19.834 30.2076 19.3373 30.6493 19.834C30.817 20.4419 30.7514 20.274 30.817 20.8066C30.7775 21.3538 30.5138 22.6976 30.3389 23.2534C30.3389 23.4387 30.0746 24.4885 30.009 24.8359C29.9653 25.1601 29.9199 25.63 29.9199 26.0005L30.009 26.6789L30.393 26.9503C30.568 26.9503 31.0502 26.7484 31.3297 26.5379C31.6092 26.3274 35.6872 23.1511 35.6872 23.1511C35.7747 23.2437 35.8154 23.0296 36.4562 22.6084C37.097 22.1871 37.4815 21.93 37.6097 22.2013C37.7378 22.4727 37.6097 22.8797 37.3533 23.1511C37.097 23.4225 32.045 27.6726 31.7825 27.8579C31.2575 28.2284 30.7763 28.4136 30.3389 28.4136C29.9233 28.4136 29.5405 28.2284 29.1905 27.8579C28.8405 27.4642 28.6218 27.0242 28.5343 26.5379C28.4468 26.0516 28.3593 25.7583 28.5343 25.0173C28.6218 23.9984 28.793 23.7165 28.793 23.2534C28.8148 22.7671 29.1905 22.0867 28.9937 21.7609C28.7968 21.4351 28.5343 21.5708 27.9579 22.0918C27.4111 22.3928 26.8417 22.9486 26.1636 23.4812C25.4856 24.0138 24.794 24.5696 24.1378 25.218C23.4816 25.8664 22.2786 26.5727 21.8412 27.2674C21.5787 27.6147 21.3271 27.9273 21.0865 28.2052C20.8459 28.4599 20.3429 28.9245 20.1022 28.9477Z" fill="white"/>
<path d="M11.9331 38.1791C10.663 39.8074 9.12508 42.9281 10.663 33.4302C10.8827 32.0733 11.5268 29.2304 11.5487 28.9526C11.5705 28.5821 12.161 26.4581 12.336 25.7634C12.511 25.0687 12.7079 24.3624 12.9266 23.6445C13.1453 22.9266 13.3422 22.3593 13.5172 21.9425C13.6047 21.572 13.6618 21.6321 13.7274 21.3542C13.8149 21.0532 14.0202 20.497 14.0421 20.4044C14.1077 20.3118 14.0749 20.0436 14.2062 19.6499C14.3593 19.2563 14.4796 18.8742 14.5671 18.5037C14.6108 18.3184 14.6983 17.9711 14.8295 17.4616C14.9827 16.929 15.1576 16.3153 15.3545 15.6206C15.5732 14.9259 15.781 14.2428 15.9779 13.5712C16.1966 12.8997 16.3825 12.3092 16.5356 11.7997C16.6888 11.2903 16.7872 10.9545 16.8309 10.7924C17.0059 10.5145 17.1372 10.2482 17.2246 9.9935C17.1262 9.82119 17.3668 9.5651 17.3887 9.47247C17.3887 9.47247 17.5265 8.94254 17.6905 8.56045C17.7124 8.39836 17.2246 9.87761 17.2246 9.78498C17.2246 9.6692 17.8152 8.22287 17.8808 8.1534C17.9683 8.08393 18.5193 7.09889 18.5193 7.00626C18.6068 6.93679 17.7061 8.88587 18.1908 7.69953C18.2127 7.53743 18.41 7.12205 18.5193 7.00626L19.8793 7.00626L20.2638 7.11047C20.1763 7.50414 19.4557 9.11344 19.1276 9.78498C19.0182 10.2481 17.9512 12.9417 17.9512 12.9417C17.9512 13.4579 18.4974 11.2781 18.5193 11.3939C17.5152 14.4343 18.3439 11.7108 18.1908 12.1276C18.0596 12.5444 17.5856 14.2392 17.3887 14.8413C17.2137 15.4434 17.3231 15.3247 17.1262 15.9268C16.9512 16.5289 16.6888 17.4848 16.5356 17.9479C16.4044 18.3879 16.193 18.9119 15.6499 20.4044C15.2054 21.6256 16.2907 18.9858 15.6499 20.4044C15.1372 22.7111 14.8525 23.0736 14.5671 23.9322C14.2062 25.0177 14.4686 24.2767 14.2062 25.0177C13.9656 25.7587 13.7274 26.3648 13.7274 26.7816C13.4868 27.6847 13.036 29.9621 12.9266 30.3094C12.8391 30.6799 12.9266 29.631 13.2875 28.6464C12.336 32.8874 12.336 37.5007 11.9331 38.1791ZM13.7468 7.49256C13.1344 7.51572 8.30996 8.222 7.7123 8.74303C6.5562 8.87117 -0.476965 12.1233 0.0256647 9.50721C-0.358653 9.50721 8.86872 7.00626 8.86872 7.00626C4.63937 8.04206 11.1757 6.42885 12.8938 6.24209C14.6119 6.05533 18.4681 5.68632 18.8399 5.61685C19.2336 5.54738 14.9389 6.05926 15.2889 5.98979C17.1226 5.85291 18.8399 5.61685 18.8399 5.61685C19.3321 5.61685 20.7775 1.40881 21.9492 0.323047C23.1209 -0.762618 24.4695 1.13671 23.5241 2.35824C22.2425 2.62957 21.8132 3.85083 21.8132 3.85083C22.3339 3.03667 20.5109 5.57054 20.9046 5.61685C21.2983 5.66317 24.3443 5.86 24.3443 5.86C24.8037 5.92947 25.6842 5.76737 25.903 5.86C26.4061 5.97578 39.1587 5.64595 39.8727 5.3436C40.5135 5.07222 38.5911 7.11047 37.3095 7.28415C36.6686 7.11047 31.6077 7.42309 31.5421 7.49256C31.4765 7.53887 33.0485 7.42309 30.2605 7.49256C32.3111 7.66624 27.5534 7.49256 27.3128 7.49256C28.8507 7.41179 25.6677 7.39993 25.3614 7.28415C25.2521 7.16836 24.4975 7.37677 24.3443 7.28415C24.2131 7.19152 23.8741 7.33046 23.5241 7.28415C23.196 7.21468 22.6711 7.15678 21.9492 7.11047C21.3368 7.17994 21.364 7.11047 20.9046 7.11047C20.4453 7.11047 20.2638 6.99469 20.2638 7.11047H17.8808L16.5356 7.11047C16.3169 7.13363 16.3716 7.06416 15.9779 7.11047C15.5842 7.13363 15.9779 7.09553 14.8295 7.28415C14.4577 7.3073 13.7468 7.49256 13.7468 7.49256Z" fill="white"/>
</svg>
