<svg width="28" height="20" viewBox="0 0 28 20" fill="none" xmlns="http://www.w3.org/2000/svg">
<rect width="28" height="20" rx="2" fill="white"/>
<mask id="mask0_174_1966" style="mask-type:luminance" maskUnits="userSpaceOnUse" x="0" y="0" width="28" height="20">
<rect width="28" height="20" rx="2" fill="white"/>
</mask>
<g mask="url(#mask0_174_1966)">
<path fill-rule="evenodd" clip-rule="evenodd" d="M28 0H0V1.33333H28V0ZM28 2.66667H0V4H28V2.66667ZM0 5.33333H28V6.66667H0V5.33333ZM28 8H0V9.33333H28V8ZM0 10.6667H28V12H0V10.6667ZM28 13.3333H0V14.6667H28V13.3333ZM0 16H28V17.3333H0V16ZM28 18.6667H0V20H28V18.6667Z" fill="#D02F44"/>
<rect width="12" height="9.33333" fill="#46467F"/>
<g filter="url(#filter0_d_174_1966)">
<path fill-rule="evenodd" clip-rule="evenodd" d="M2.66732 2.00016C2.66732 2.36835 2.36884 2.66683 2.00065 2.66683C1.63246 2.66683 1.33398 2.36835 1.33398 2.00016C1.33398 1.63197 1.63246 1.3335 2.00065 1.3335C2.36884 1.3335 2.66732 1.63197 2.66732 2.00016ZM5.33398 2.00016C5.33398 2.36835 5.03551 2.66683 4.66732 2.66683C4.29913 2.66683 4.00065 2.36835 4.00065 2.00016C4.00065 1.63197 4.29913 1.3335 4.66732 1.3335C5.03551 1.3335 5.33398 1.63197 5.33398 2.00016ZM7.33398 2.66683C7.70217 2.66683 8.00065 2.36835 8.00065 2.00016C8.00065 1.63197 7.70217 1.3335 7.33398 1.3335C6.96579 1.3335 6.66732 1.63197 6.66732 2.00016C6.66732 2.36835 6.96579 2.66683 7.33398 2.66683ZM10.6673 2.00016C10.6673 2.36835 10.3688 2.66683 10.0007 2.66683C9.63246 2.66683 9.33398 2.36835 9.33398 2.00016C9.33398 1.63197 9.63246 1.3335 10.0007 1.3335C10.3688 1.3335 10.6673 1.63197 10.6673 2.00016ZM3.33398 4.00016C3.70217 4.00016 4.00065 3.70169 4.00065 3.3335C4.00065 2.96531 3.70217 2.66683 3.33398 2.66683C2.96579 2.66683 2.66732 2.96531 2.66732 3.3335C2.66732 3.70169 2.96579 4.00016 3.33398 4.00016ZM6.66732 3.3335C6.66732 3.70169 6.36884 4.00016 6.00065 4.00016C5.63246 4.00016 5.33398 3.70169 5.33398 3.3335C5.33398 2.96531 5.63246 2.66683 6.00065 2.66683C6.36884 2.66683 6.66732 2.96531 6.66732 3.3335ZM8.66732 4.00016C9.03551 4.00016 9.33398 3.70169 9.33398 3.3335C9.33398 2.96531 9.03551 2.66683 8.66732 2.66683C8.29913 2.66683 8.00065 2.96531 8.00065 3.3335C8.00065 3.70169 8.29913 4.00016 8.66732 4.00016ZM10.6673 4.66683C10.6673 5.03502 10.3688 5.3335 10.0007 5.3335C9.63246 5.3335 9.33398 5.03502 9.33398 4.66683C9.33398 4.29864 9.63246 4.00016 10.0007 4.00016C10.3688 4.00016 10.6673 4.29864 10.6673 4.66683ZM7.33398 5.3335C7.70217 5.3335 8.00065 5.03502 8.00065 4.66683C8.00065 4.29864 7.70217 4.00016 7.33398 4.00016C6.96579 4.00016 6.66732 4.29864 6.66732 4.66683C6.66732 5.03502 6.96579 5.3335 7.33398 5.3335ZM5.33398 4.66683C5.33398 5.03502 5.03551 5.3335 4.66732 5.3335C4.29913 5.3335 4.00065 5.03502 4.00065 4.66683C4.00065 4.29864 4.29913 4.00016 4.66732 4.00016C5.03551 4.00016 5.33398 4.29864 5.33398 4.66683ZM2.00065 5.3335C2.36884 5.3335 2.66732 5.03502 2.66732 4.66683C2.66732 4.29864 2.36884 4.00016 2.00065 4.00016C1.63246 4.00016 1.33398 4.29864 1.33398 4.66683C1.33398 5.03502 1.63246 5.3335 2.00065 5.3335ZM4.00065 6.00016C4.00065 6.36835 3.70217 6.66683 3.33398 6.66683C2.96579 6.66683 2.66732 6.36835 2.66732 6.00016C2.66732 5.63197 2.96579 5.3335 3.33398 5.3335C3.70217 5.3335 4.00065 5.63197 4.00065 6.00016ZM6.00065 6.66683C6.36884 6.66683 6.66732 6.36835 6.66732 6.00016C6.66732 5.63197 6.36884 5.3335 6.00065 5.3335C5.63246 5.3335 5.33398 5.63197 5.33398 6.00016C5.33398 6.36835 5.63246 6.66683 6.00065 6.66683ZM9.33398 6.00016C9.33398 6.36835 9.03551 6.66683 8.66732 6.66683C8.29913 6.66683 8.00065 6.36835 8.00065 6.00016C8.00065 5.63197 8.29913 5.3335 8.66732 5.3335C9.03551 5.3335 9.33398 5.63197 9.33398 6.00016ZM10.0007 8.00016C10.3688 8.00016 10.6673 7.70169 10.6673 7.3335C10.6673 6.96531 10.3688 6.66683 10.0007 6.66683C9.63246 6.66683 9.33398 6.96531 9.33398 7.3335C9.33398 7.70169 9.63246 8.00016 10.0007 8.00016ZM8.00065 7.3335C8.00065 7.70169 7.70217 8.00016 7.33398 8.00016C6.96579 8.00016 6.66732 7.70169 6.66732 7.3335C6.66732 6.96531 6.96579 6.66683 7.33398 6.66683C7.70217 6.66683 8.00065 6.96531 8.00065 7.3335ZM4.66732 8.00016C5.03551 8.00016 5.33398 7.70169 5.33398 7.3335C5.33398 6.96531 5.03551 6.66683 4.66732 6.66683C4.29913 6.66683 4.00065 6.96531 4.00065 7.3335C4.00065 7.70169 4.29913 8.00016 4.66732 8.00016ZM2.66732 7.3335C2.66732 7.70169 2.36884 8.00016 2.00065 8.00016C1.63246 8.00016 1.33398 7.70169 1.33398 7.3335C1.33398 6.96531 1.63246 6.66683 2.00065 6.66683C2.36884 6.66683 2.66732 6.96531 2.66732 7.3335Z" fill="url(#paint0_linear_174_1966)"/>
</g>
</g>
<defs>
<filter id="filter0_d_174_1966" x="1.33398" y="1.3335" width="9.33398" height="7.6665" filterUnits="userSpaceOnUse" color-interpolation-filters="sRGB">
<feFlood flood-opacity="0" result="BackgroundImageFix"/>
<feColorMatrix in="SourceAlpha" type="matrix" values="0 0 0 0 0 0 0 0 0 0 0 0 0 0 0 0 0 0 127 0" result="hardAlpha"/>
<feOffset dy="1"/>
<feColorMatrix type="matrix" values="0 0 0 0 0 0 0 0 0 0 0 0 0 0 0 0 0 0 0.06 0"/>
<feBlend mode="normal" in2="BackgroundImageFix" result="effect1_dropShadow_174_1966"/>
<feBlend mode="normal" in="SourceGraphic" in2="effect1_dropShadow_174_1966" result="shape"/>
</filter>
<linearGradient id="paint0_linear_174_1966" x1="1.33398" y1="1.3335" x2="1.33398" y2="8.00016" gradientUnits="userSpaceOnUse">
<stop stop-color="white"/>
<stop offset="1" stop-color="#F0F0F0"/>
</linearGradient>
</defs>
</svg>
